<svg xmlns="http://www.w3.org/2000/svg" xmlns:xlink="http://www.w3.org/1999/xlink" width="200" height="200" viewBox="0 0 200 200" role="img" aria-labelledby="crestTitle">
  <title id="crestTitle">Znak S.K. Rváčov, fotbalový klub založený 1927</title>
  <defs>
    <path id="arcTop" d="M100,100 m-82,0 a82,82 0 0,1 164,0" fill="none"/>
    <path id="arcBottom" d="M100,100 m78,0 a78,78 0 0,1 -156,0" fill="none"/>
    <radialGradient id="innerGlow" cx="50%" cy="38%" r="62%">
      <stop offset="0" stop-color="#FCF7EE"/>
      <stop offset="1" stop-color="#EADFC9"/>
    </radialGradient>
    <linearGradient id="ringGrad" x1="0" y1="0" x2="0" y2="1">
      <stop offset="0" stop-color="#E3242B"/>
      <stop offset="1" stop-color="#8E0A11"/>
    </linearGradient>
  </defs>

  <!-- vnější kruh -->
  <circle cx="100" cy="100" r="98" fill="#101416"/>
  <circle cx="100" cy="100" r="96" fill="url(#ringGrad)"/>
  <circle cx="100" cy="100" r="96" fill="none" stroke="#F2C14E" stroke-width="1.6"/>
  <circle cx="100" cy="100" r="70" fill="none" stroke="#F2C14E" stroke-width="1.6"/>

  <!-- opisné texty -->
  <g fill="#FCF7EE" font-family="'Barlow Condensed','Arial Narrow',Arial,Helvetica,sans-serif" font-weight="700">
    <text font-size="19" letter-spacing="3.4">
      <textPath href="#arcTop" xlink:href="#arcTop" startOffset="50%" text-anchor="middle">S.K. RVÁČOV</textPath>
    </text>
    <text font-size="14" letter-spacing="4.6">
      <textPath href="#arcBottom" xlink:href="#arcBottom" startOffset="50%" text-anchor="middle">FOTBAL &#183; 1927</textPath>
    </text>
  </g>

  <!-- oddělovací hvězdičky -->
  <circle cx="15.5" cy="106" r="2.6" fill="#F2C14E"/>
  <circle cx="184.5" cy="106" r="2.6" fill="#F2C14E"/>

  <!-- vnitřní pole -->
  <circle cx="100" cy="100" r="68" fill="url(#innerGlow)"/>

  <!-- hvězdice -->
  <g>
    <path fill="#C99406" d="M92.89 78.13 L100 40 L100 100 Z"/>
    <path fill="#F2C14E" d="M100 100 L100 40 L107.11 78.13 Z"/>
    <path fill="#C99406" d="M107.11 78.13 L135.27 51.46 L100 100 Z"/>
    <path fill="#F2C14E" d="M100 100 L135.27 51.46 L118.61 86.48 Z"/>
    <path fill="#C99406" d="M118.61 86.48 L157.06 81.46 L100 100 Z"/>
    <path fill="#F2C14E" d="M100 100 L157.06 81.46 L123 100 Z"/>
    <path fill="#C99406" d="M123 100 L157.06 118.54 L100 100 Z"/>
    <path fill="#F2C14E" d="M100 100 L157.06 118.54 L118.61 113.52 Z"/>
    <path fill="#C99406" d="M118.61 113.52 L135.27 148.54 L100 100 Z"/>
    <path fill="#F2C14E" d="M100 100 L135.27 148.54 L107.11 121.87 Z"/>
    <path fill="#C99406" d="M107.11 121.87 L100 160 L100 100 Z"/>
    <path fill="#F2C14E" d="M100 100 L100 160 L92.89 121.87 Z"/>
    <path fill="#C99406" d="M92.89 121.87 L64.73 148.54 L100 100 Z"/>
    <path fill="#F2C14E" d="M100 100 L64.73 148.54 L81.39 113.52 Z"/>
    <path fill="#C99406" d="M81.39 113.52 L42.94 118.54 L100 100 Z"/>
    <path fill="#F2C14E" d="M100 100 L42.94 118.54 L77 100 Z"/>
    <path fill="#C99406" d="M77 100 L42.94 81.46 L100 100 Z"/>
    <path fill="#F2C14E" d="M100 100 L42.94 81.46 L81.39 86.48 Z"/>
    <path fill="#C99406" d="M81.39 86.48 L64.73 51.46 L100 100 Z"/>
    <path fill="#F2C14E" d="M100 100 L64.73 51.46 L92.89 78.13 Z"/>
  </g>
  <g>
    <path fill="#8E0A11" d="M95.36 85.73 L100 59 L100 100 Z"/>
    <path fill="#E3242B" d="M100 100 L100 59 L104.64 85.73 Z"/>
    <path fill="#8E0A11" d="M104.64 85.73 L124.1 66.83 L100 100 Z"/>
    <path fill="#E3242B" d="M100 100 L124.1 66.83 L112.14 91.18 Z"/>
    <path fill="#8E0A11" d="M112.14 91.18 L138.99 87.33 L100 100 Z"/>
    <path fill="#E3242B" d="M100 100 L138.99 87.33 L115 100 Z"/>
    <path fill="#8E0A11" d="M115 100 L138.99 112.67 L100 100 Z"/>
    <path fill="#E3242B" d="M100 100 L138.99 112.67 L112.14 108.82 Z"/>
    <path fill="#8E0A11" d="M112.14 108.82 L124.1 133.17 L100 100 Z"/>
    <path fill="#E3242B" d="M100 100 L124.1 133.17 L104.64 114.27 Z"/>
    <path fill="#8E0A11" d="M104.64 114.27 L100 141 L100 100 Z"/>
    <path fill="#E3242B" d="M100 100 L100 141 L95.36 114.27 Z"/>
    <path fill="#8E0A11" d="M95.36 114.27 L75.9 133.17 L100 100 Z"/>
    <path fill="#E3242B" d="M100 100 L75.9 133.17 L87.86 108.82 Z"/>
    <path fill="#8E0A11" d="M87.86 108.82 L61.01 112.67 L100 100 Z"/>
    <path fill="#E3242B" d="M100 100 L61.01 112.67 L85 100 Z"/>
    <path fill="#8E0A11" d="M85 100 L61.01 87.33 L100 100 Z"/>
    <path fill="#E3242B" d="M100 100 L61.01 87.33 L87.86 91.18 Z"/>
    <path fill="#8E0A11" d="M87.86 91.18 L75.9 66.83 L100 100 Z"/>
    <path fill="#E3242B" d="M100 100 L75.9 66.83 L95.36 85.73 Z"/>
  </g>
  <circle cx="100" cy="100" r="13" fill="#FCF7EE" stroke="#C99406" stroke-width="1.4"/>
  <text x="100" y="105.5" text-anchor="middle" font-family="'Barlow Condensed','Arial Narrow',Arial,Helvetica,sans-serif" font-weight="800"
        font-size="14" fill="#C4131C" letter-spacing="0">SKR</text>
</svg>
